<svg xmlns="http://www.w3.org/2000/svg" viewBox="0 0 200 200" fill="none">
  <!-- Cardamom pod cluster -->
  <!-- Main pod -->
  <path d="M85 50 Q75 60 72 100 Q72 140 85 155 Q95 162 105 155 Q118 140 118 100 Q118 60 105 50 Q95 44 85 50Z" fill="#000" opacity="0.2" stroke="#000" stroke-width="1.5"/>
  <!-- Pod ridges -->
  <path d="M88 55 Q82 80 82 100 Q82 125 88 150" stroke="#000" stroke-width="0.7" opacity="0.3"/>
  <path d="M95 48 Q90 78 90 100 Q90 128 95 155" stroke="#000" stroke-width="0.7" opacity="0.3"/>
  <path d="M102 48 Q107 78 107 100 Q107 128 102 155" stroke="#000" stroke-width="0.7" opacity="0.3"/>
  <!-- Pod top -->
  <path d="M85 50 Q95 42 105 50" stroke="#000" stroke-width="1" opacity="0.4"/>
  <line x1="95" y1="44" x2="95" y2="30" stroke="#000" stroke-width="1" opacity="0.3" stroke-linecap="round"/>
  <!-- Small pod left -->
  <path d="M42 80 Q36 88 35 110 Q35 132 42 140 Q48 144 53 140 Q60 132 60 110 Q60 88 53 80 Q48 76 42 80Z" fill="#000" opacity="0.12" stroke="#000" stroke-width="1.2"/>
  <path d="M45 83 Q41 95 41 110 Q41 125 45 137" stroke="#000" stroke-width="0.5" opacity="0.25"/>
  <!-- Small pod right -->
  <path d="M140 70 Q134 78 133 98 Q133 118 140 126 Q146 130 151 126 Q158 118 158 98 Q158 78 151 70 Q146 66 140 70Z" fill="#000" opacity="0.12" stroke="#000" stroke-width="1.2"/>
  <path d="M143 73 Q139 85 139 98 Q139 112 143 123" stroke="#000" stroke-width="0.5" opacity="0.25"/>
</svg>
