<svg xmlns="http://www.w3.org/2000/svg" viewBox="0 0 500 710">
  <path d="M176.8,686.5L167.4,687.0L162.4,683.5L156.5,683.3L145.9,683.2L145.9,661.2L149.7,665.8L154.6,673.2L167.4,679.1L181.2,681.6L176.8,686.5Z M182.1,360.1L187.9,367.2L191.7,359.3L202.9,359.7L204.5,361.8L222.6,377.9L230.7,379.4L242.7,386.7L252.9,390.5L254.3,394.9L244.6,409.8L254.5,412.5L265.6,414.0L273.4,412.4L282.3,404.9L283.9,396.2L288.8,394.3L293.8,400.0L293.6,407.9L285.3,413.3L278.7,417.3L267.5,426.9L254.4,440.3L251.9,448.2L249.3,458.3L249.4,468.1L247.2,470.3L246.5,476.7L245.8,481.9L258.3,490.3L257.0,497.1L263.1,501.4L262.6,506.2L253.2,518.8L238.6,524.1L218.8,526.2L208.0,525.2L210.0,531.0L208.0,538.4L209.8,543.4L203.9,546.9L193.8,548.2L184.4,544.6L180.6,547.2L181.9,557.0L188.6,560.0L194.0,556.9L196.9,562.0L187.8,565.0L179.9,571.2L178.5,581.1L176.1,586.4L166.8,586.4L159.1,591.4L156.3,598.8L166.0,606.0L175.4,608.0L172.0,616.9L160.4,622.4L154.0,634.0L145.0,637.9L140.9,642.5L144.1,652.7L150.7,658.4L146.5,657.9L137.4,656.4L113.6,655.1L109.5,649.3L109.7,641.9L103.1,642.6L99.6,639.0L98.8,628.5L106.3,624.2L109.5,618.0L108.3,613.0L113.6,604.6L117.2,591.5L116.1,585.7L120.4,583.9L119.3,580.2L114.8,578.2L118.0,574.0L113.6,570.3L111.3,558.9L115.2,556.9L113.6,544.9L115.9,534.8L118.5,526.0L124.4,522.5L121.4,512.8L121.4,503.8L128.9,497.4L128.6,489.1L134.2,479.5L134.3,470.4L131.7,468.6L127.2,451.6L133.2,441.5L132.3,432.0L135.8,423.0L142.3,413.8L149.2,407.6L146.3,403.8L148.3,400.6L148.0,384.2L158.8,379.3L162.2,369.1L161.0,366.6L169.2,357.7L182.1,360.1Z" fill="none" stroke="#000" stroke-width="0.75" stroke-linejoin="round"/>
  <path d="M202.9,359.7L191.7,359.3L187.9,367.2L182.1,360.1L169.2,357.7L161.0,366.6L153.8,368.0L150.0,354.4L144.7,343.3L147.8,333.8L142.6,329.6L141.3,322.5L136.5,315.8L142.7,305.2L138.5,296.9L140.7,293.6L139.0,289.9L142.8,285.0L143.0,276.6L143.5,269.7L145.6,266.3L137.1,250.5L144.4,251.3L149.5,251.1L151.7,248.1L160.3,244.1L165.5,240.4L178.4,238.8L177.3,246.1L178.5,249.9L177.8,256.5L188.5,265.4L199.5,267.0L203.4,270.7L210.0,272.6L214.1,275.5L220.3,275.4L226.0,278.3L226.5,284.0L228.4,286.9L228.5,291.1L225.6,291.3L229.4,302.8L248.3,303.2L246.9,308.9L247.9,312.8L253.3,315.5L255.6,321.6L253.9,329.4L251.2,333.7L252.1,339.3L249.1,341.4L248.9,338.3L239.7,333.3L230.6,333.2L213.4,336.0L208.7,344.7L208.4,350.0L204.5,361.8L202.9,359.7Z" fill="none" stroke="#000" stroke-width="0.75" stroke-linejoin="round"/>
  <path d="M254.4,440.3L267.5,426.9L278.7,417.3L285.3,413.3L293.6,407.9L293.8,400.0L288.8,394.3L283.9,396.2L285.9,390.5L287.2,384.7L287.2,379.3L283.7,377.5L280.0,379.1L276.3,378.6L275.2,374.8L274.2,365.8L272.4,362.9L265.7,360.2L261.7,362.1L251.3,360.2L252.0,346.9L249.1,341.4L252.1,339.3L251.2,333.7L253.9,329.4L255.6,321.6L253.3,315.5L247.9,312.8L246.9,308.9L248.3,303.2L229.4,302.8L225.6,291.3L228.5,291.1L228.4,286.9L226.5,284.0L226.0,278.3L220.3,275.4L214.1,275.5L210.0,272.6L203.4,270.7L199.5,267.0L188.5,265.4L177.8,256.5L178.5,249.9L177.3,246.1L178.4,238.8L165.5,240.4L160.3,244.1L151.7,248.1L149.5,251.1L144.4,251.3L137.1,250.5L131.5,252.2L127.0,251.0L127.7,236.1L119.6,241.9L110.9,241.6L107.2,236.4L100.6,235.8L102.7,231.6L97.3,225.6L93.2,216.7L95.8,214.9L95.7,210.7L101.7,207.9L100.7,202.6L103.2,199.1L103.9,194.5L115.2,187.8L123.3,185.9L124.6,184.5L133.5,184.9L137.9,157.9L138.2,153.6L136.6,148.0L132.2,144.4L132.3,137.2L137.8,135.6L139.8,136.6L140.1,132.8L134.4,131.8L134.2,125.7L153.4,125.9L156.7,122.5L159.4,125.6L161.4,131.4L163.2,130.2L168.7,135.4L176.3,134.8L178.2,131.8L185.5,129.5L189.6,127.8L190.8,123.7L197.8,120.9L197.3,118.8L188.9,118.0L187.5,111.7L187.9,105.1L183.5,102.6L185.4,101.7L192.7,102.9L200.5,105.4L203.3,103.1L210.4,101.5L221.5,97.9L225.1,94.1L223.8,91.3L228.9,90.9L231.2,93.1L229.9,97.5L233.3,99.0L235.5,103.5L232.8,107.0L231.2,115.4L233.8,120.4L234.5,125.0L240.5,129.6L245.4,130.1L246.5,128.1L249.6,127.7L254.0,126.0L257.2,123.4L262.7,124.2L265.1,123.8L270.4,124.6L271.3,122.6L269.7,120.7L270.7,117.8L274.6,118.7L279.3,117.7L284.9,119.8L289.2,121.8L292.3,119.1L294.5,119.6L295.8,122.3L300.6,121.6L304.3,117.9L307.4,110.6L313.2,101.6L316.5,101.1L319.0,106.6L324.5,123.8L329.8,125.4L330.0,132.2L322.6,140.4L325.7,143.3L343.1,144.9L343.5,154.8L351.0,148.3L363.4,151.8L379.7,157.8L384.5,163.6L382.9,169.1L394.4,166.0L413.6,171.3L428.3,170.9L442.8,179.0L455.4,190.1L463.0,192.9L471.4,193.3L475.0,196.4L478.4,209.0L480.0,214.9L476.1,231.2L471.1,237.6L457.2,251.4L450.9,262.5L443.6,271.0L441.1,271.2L438.4,278.5L439.1,296.9L436.3,312.1L435.3,318.6L432.2,322.5L430.4,335.7L420.4,348.6L418.8,358.7L410.8,363.0L408.5,368.9L397.8,368.9L382.3,372.7L375.3,377.1L364.3,379.9L352.7,387.8L344.4,397.6L342.9,404.9L344.6,410.4L342.7,420.3L340.5,425.1L333.6,430.5L322.7,447.9L314.0,455.7L307.3,460.3L302.8,469.7L296.3,475.3L293.6,469.7L297.9,465.1L292.2,458.4L284.5,452.9L274.3,446.6L270.7,446.9L260.8,439.3L254.4,440.3Z" fill="none" stroke="#000" stroke-width="0.75" stroke-linejoin="round"/>
  <path d="M145.9,661.2L145.9,683.2L156.5,683.3L162.4,683.5L159.1,687.5L150.7,690.6L145.8,690.3L140.0,689.5L132.9,686.5L122.5,685.1L110.1,679.6L100.1,674.3L86.5,663.2L94.6,665.3L108.5,671.9L121.5,675.4L126.6,670.9L129.8,664.1L138.9,660.1L145.9,661.2Z M150.0,354.4L153.8,368.0L161.0,366.6L162.2,369.1L158.8,379.3L148.0,384.2L148.3,400.6L146.3,403.8L149.2,407.6L142.3,413.8L135.8,423.0L132.3,432.0L133.2,441.5L127.2,451.6L131.7,468.6L134.3,470.4L134.2,479.5L128.6,489.1L128.9,497.4L121.4,503.8L121.4,512.8L124.4,522.5L118.5,526.0L115.9,534.8L113.6,544.9L115.2,556.9L111.3,558.9L113.6,570.3L118.0,574.0L114.8,578.2L119.3,580.2L120.4,583.9L116.1,585.7L117.2,591.5L113.6,604.6L108.3,613.0L109.5,618.0L106.3,624.2L98.8,628.5L99.6,639.0L103.1,642.6L109.7,641.9L109.5,649.3L113.6,655.1L137.4,656.4L146.5,657.9L137.8,657.9L133.0,660.3L124.1,663.8L122.5,673.0L118.4,673.3L107.2,670.1L96.0,663.2L96.0,663.2L83.7,657.6L80.6,651.3L83.4,645.5L78.4,639.0L77.2,622.2L81.4,612.7L91.8,605.1L76.8,602.2L86.2,593.5L89.6,577.2L100.5,580.6L105.7,560.2L99.1,557.6L96.0,569.9L89.8,568.5L92.9,554.4L96.2,536.2L100.7,529.4L97.9,519.8L97.1,508.7L101.2,508.4L107.3,492.5L114.1,476.7L118.3,462.0L116.0,447.3L118.9,439.1L117.8,427.0L123.5,414.9L125.3,395.9L128.5,375.4L131.5,353.4L130.8,337.2L128.8,323.4L133.8,320.8L136.5,315.8L141.3,322.5L142.6,329.6L147.8,333.8L144.7,343.3L150.0,354.4Z" fill="none" stroke="#000" stroke-width="0.75" stroke-linejoin="round"/>
  <path d="M30.9,176.1L36.2,168.7L34.0,164.4L30.3,169.0L24.4,164.7L26.4,161.9L24.7,153.0L28.2,151.5L30.0,145.4L33.7,139.0L33.0,135.0L38.4,132.9L45.2,129.0L55.0,134.6L56.9,134.4L59.3,138.7L67.6,140.0L70.4,138.5L75.3,141.7L79.5,144.1L80.9,151.5L77.8,157.9L67.1,168.3L55.2,172.2L49.2,180.7L47.3,187.4L41.7,191.4L37.6,186.5L33.6,185.4L29.5,186.2L29.3,182.6L32.1,180.2L30.9,176.1Z" fill="none" stroke="#000" stroke-width="0.75" stroke-linejoin="round"/>
  <path d="M219.2,653.5L231.0,647.6L239.4,650.0L245.3,646.1L253.2,650.5L250.2,654.0L236.9,656.9L232.5,653.5L224.1,657.9L219.2,653.5Z" fill="none" stroke="#000" stroke-width="0.75" stroke-linejoin="round"/>
  <path d="M304.3,117.9L300.6,121.6L295.8,122.3L294.5,119.6L292.3,119.1L289.2,121.8L284.9,119.8L287.4,115.6L288.3,111.1L290.0,106.9L286.2,101.0L285.4,94.3L290.5,85.8L293.9,86.9L301.1,89.2L311.6,97.6L313.2,101.6L307.4,110.6L304.3,117.9Z" fill="none" stroke="#000" stroke-width="0.75" stroke-linejoin="round"/>
  <path d="M233.4,60.1L239.8,63.7L245.9,70.2L246.2,75.2L249.9,75.5L255.2,80.3L259.1,83.7L257.5,92.6L251.5,95.1L252.1,97.5L250.3,102.5L254.6,109.7L257.8,109.7L259.1,115.3L265.1,123.8L262.7,124.2L257.2,123.4L254.0,126.0L249.6,127.7L246.5,128.1L245.4,130.1L240.5,129.6L234.5,125.0L233.8,120.4L231.2,115.4L232.8,107.0L235.5,103.5L233.3,99.0L229.9,97.5L231.2,93.1L228.9,90.9L223.8,91.3L217.1,83.8L219.8,81.1L219.6,76.6L225.6,75.0L228.1,73.1L224.7,69.5L225.6,65.9L233.4,60.1Z" fill="none" stroke="#000" stroke-width="0.75" stroke-linejoin="round"/>
  <path d="M136.5,315.8L133.8,320.8L128.8,323.4L118.9,317.7L118.0,313.7L98.5,303.8L80.8,293.0L73.2,286.9L69.1,278.8L70.8,275.9L62.4,263.0L52.7,244.8L43.4,225.2L39.4,220.7L36.3,213.5L28.6,207.0L21.6,203.0L24.8,198.6L20.0,189.2L23.1,182.3L30.9,176.1L32.1,180.2L29.3,182.6L29.5,186.2L33.6,185.4L37.6,186.5L41.7,191.4L47.3,187.4L49.2,180.7L55.2,172.2L67.1,168.3L77.8,157.9L80.9,151.5L79.5,144.1L82.1,143.1L88.7,147.8L91.8,152.4L96.4,155.0L102.2,165.3L109.5,166.5L115.0,163.9L118.5,165.6L124.4,164.8L132.0,169.4L125.6,179.4L128.6,179.7L133.5,184.9L124.6,184.5L123.3,185.9L115.2,187.8L103.9,194.5L103.2,199.1L100.7,202.6L101.7,207.9L95.7,210.7L95.8,214.9L93.2,216.7L97.3,225.6L102.7,231.6L100.6,235.8L107.2,236.4L110.9,241.6L119.6,241.9L127.7,236.1L127.0,251.0L131.5,252.2L137.1,250.5L145.6,266.3L143.5,269.7L143.0,276.6L142.8,285.0L139.0,289.9L140.7,293.6L138.5,296.9L142.7,305.2L136.5,315.8Z" fill="none" stroke="#000" stroke-width="0.75" stroke-linejoin="round"/>
  <path d="M204.5,361.8L208.4,350.0L208.7,344.7L213.4,336.0L230.6,333.2L239.7,333.3L248.9,338.3L249.1,341.4L252.0,346.9L251.3,360.2L261.7,362.1L265.7,360.2L272.4,362.9L274.2,365.8L275.2,374.8L276.3,378.6L280.0,379.1L283.7,377.5L287.2,379.3L287.2,384.7L285.9,390.5L283.9,396.2L282.3,404.9L273.4,412.4L265.6,414.0L254.5,412.5L244.6,409.8L254.3,394.9L252.9,390.5L242.7,386.7L230.7,379.4L222.6,377.9L204.5,361.8Z" fill="none" stroke="#000" stroke-width="0.75" stroke-linejoin="round"/>
  <path d="M259.1,83.7L270.9,85.7L272.0,83.9L279.9,83.2L290.5,85.8L285.4,94.3L286.2,101.0L290.0,106.9L288.3,111.1L287.5,115.6L284.9,119.8L279.3,117.7L274.6,118.7L270.7,117.8L269.7,120.7L271.3,122.6L270.4,124.6L265.1,123.8L259.1,115.3L257.8,109.7L254.6,109.7L250.3,102.5L252.1,97.5L251.5,95.1L257.5,92.6L259.1,83.7Z" fill="none" stroke="#000" stroke-width="0.75" stroke-linejoin="round"/>
  <path d="M214.4,36.5L220.1,35.2L222.2,35.6L221.8,42.9L213.5,44.0L211.8,43.1L214.6,40.4L214.4,36.5Z" fill="none" stroke="#000" stroke-width="0.75" stroke-linejoin="round"/>
  <path d="M254.4,440.3L260.8,439.3L270.7,446.9L274.3,446.6L284.5,452.9L292.2,458.4L297.9,465.1L293.6,469.7L296.3,475.3L292.0,481.5L280.9,487.0L273.6,485.0L268.3,486.1L259.2,481.8L252.5,482.2L246.5,476.7L247.2,470.3L249.4,468.1L249.3,458.3L251.9,448.2L254.4,440.3Z" fill="none" stroke="#000" stroke-width="0.75" stroke-linejoin="round"/>
  <path d="M119.3,26.5L119.0,28.8L113.3,30.0L116.5,34.5L116.4,39.6L112.0,45.3L115.7,53.2L120.0,52.5L122.2,45.4L119.1,41.9L118.6,34.5L130.9,30.5L129.5,25.8L133.0,22.7L136.5,29.6L143.5,29.8L149.9,35.3L150.2,38.6L159.1,38.6L169.6,37.6L175.3,42.0L182.8,43.3L188.3,40.2L188.4,37.7L200.6,37.1L212.5,37.0L204.1,39.9L207.4,44.5L215.3,45.3L222.8,50.1L224.4,58.0L229.5,57.8L233.4,60.1L225.6,65.9L224.7,69.5L228.1,73.1L225.6,75.0L219.6,76.6L219.8,81.1L217.1,83.8L223.8,91.3L225.1,94.1L221.5,97.9L210.4,101.5L203.3,103.1L200.5,105.4L192.7,102.9L185.4,101.7L183.5,102.6L187.9,105.1L187.5,111.7L188.9,118.0L197.3,118.8L197.8,120.9L190.8,123.7L189.6,127.8L185.5,129.5L178.2,131.8L176.3,134.8L168.7,135.4L163.2,130.2L160.2,120.4L157.6,116.9L154.0,114.8L159.0,109.9L158.7,107.7L155.9,104.7L153.9,98.2L154.7,91.1L156.9,87.8L158.6,82.5L155.2,80.8L149.5,81.9L142.4,81.4L138.5,82.4L131.5,74.0L125.8,72.7L113.1,73.7L110.8,70.2L108.4,69.4L108.0,67.3L109.2,63.7L108.4,59.7L106.2,57.6L105.0,53.0L99.9,52.4L102.6,46.6L103.8,39.6L106.7,35.9L110.5,33.1L113.0,28.2L119.3,26.5Z" fill="none" stroke="#000" stroke-width="0.75" stroke-linejoin="round"/>
  <path d="M79.5,144.1L75.3,141.7L70.4,138.5L67.6,140.0L59.3,138.7L56.9,134.4L55.0,134.6L45.2,129.0L43.8,125.9L47.5,125.2L47.1,120.2L49.4,116.6L54.3,116.0L58.4,109.8L62.2,104.6L58.6,102.3L60.4,96.6L58.2,87.5L60.3,85.0L58.8,76.6L54.8,71.4L56.0,66.6L59.2,67.3L61.1,64.4L58.8,58.6L60.0,57.1L65.1,57.4L72.5,50.6L76.5,49.5L76.6,46.2L78.4,37.9L84.1,33.3L90.3,33.2L91.1,31.1L98.8,31.9L106.5,27.0L110.4,24.7L115.2,20.0L118.7,20.6L121.2,23.2L119.3,26.5L113.0,28.2L110.5,33.1L106.7,35.9L103.8,39.6L102.6,46.6L99.9,52.4L105.0,53.0L106.2,57.6L108.4,59.7L109.2,63.7L108.0,67.3L108.4,69.4L110.8,70.2L113.1,73.7L125.8,72.7L131.5,74.0L138.5,82.4L142.4,81.4L149.5,81.9L155.2,80.8L158.6,82.5L156.9,87.8L154.7,91.1L153.9,98.2L155.9,104.7L158.7,107.7L159.0,109.9L154.0,114.8L157.6,116.9L160.2,120.4L163.2,130.2L161.4,131.4L159.4,125.6L156.7,122.5L153.4,125.9L134.2,125.7L134.4,131.8L140.1,132.8L139.8,136.6L137.8,135.6L132.3,137.2L132.2,144.4L136.6,148.0L138.2,153.6L137.9,157.9L133.5,184.9L128.6,179.7L125.6,179.4L132.0,169.4L124.4,164.8L118.5,165.6L115.0,163.9L109.5,166.5L102.2,165.3L96.4,155.0L91.8,152.4L88.7,147.8L82.1,143.1L79.5,144.1Z" fill="#000" stroke="#000" stroke-width="0.75" stroke-linejoin="round"/>
</svg>