<svg xmlns="http://www.w3.org/2000/svg" viewBox="0 0 500 522">
  <path d="M247.1,309.2L248.8,314.2L250.7,318.2L252.2,320.4L254.8,323.9L259.2,323.3L261.4,322.4L265.1,323.3L266.1,321.6L267.8,317.7L272.0,317.5L272.3,316.3L275.7,316.3L275.2,318.7L283.3,318.6L283.4,322.9L284.8,325.4L283.8,329.5L284.3,333.6L286.5,336.1L286.1,344.0L287.8,343.4L290.7,343.6L294.8,342.6L297.9,343.0L298.6,345.1L297.8,348.3L299.0,351.4L298.0,353.9L298.6,356.2L284.7,356.2L284.3,377.5L288.9,382.9L293.2,387.1L280.9,389.8L264.7,388.9L260.1,385.7L233.0,386.0L232.0,386.4L228.0,383.4L223.6,383.2L219.6,384.4L216.4,385.6L215.8,381.4L216.7,375.5L219.0,369.4L219.4,366.5L221.5,360.5L223.1,357.8L227.0,353.4L229.1,350.4L229.8,345.5L229.5,341.7L227.5,339.3L225.7,335.2L224.0,331.2L224.4,329.8L226.5,327.2L224.4,320.7L223.1,316.2L219.7,312.0L220.3,310.7L223.1,309.8L225.0,309.9L227.4,309.1L247.1,309.2Z M221.1,307.9L219.4,308.6L217.6,303.6L220.3,300.7L222.3,299.6L224.9,301.9L222.4,303.3L221.3,305.0L221.1,307.9Z" fill="none" stroke="#000" stroke-width="0.75" stroke-linejoin="round"/>
  <path d="M334.2,300.0L333.8,291.9L332.1,288.9L336.2,289.4L338.2,285.6L341.8,286.0L342.1,288.7L343.6,290.2L343.6,292.3L342.0,293.7L339.4,297.2L337.0,299.7L334.2,300.0Z" fill="none" stroke="#000" stroke-width="0.75" stroke-linejoin="round"/>
  <path d="M155.9,228.0L150.4,228.8L148.7,224.2L149.0,208.8L147.7,207.4L147.4,204.1L145.1,201.8L143.1,199.8L143.9,196.3L146.2,195.5L147.6,192.6L150.9,192.0L152.3,190.0L154.6,188.0L157.0,188.0L162.1,191.9L161.8,194.1L163.3,198.1L162.0,200.8L162.7,202.5L159.5,206.7L157.4,208.7L156.1,213.0L156.3,217.2L155.9,228.0Z" fill="none" stroke="#000" stroke-width="0.75" stroke-linejoin="round"/>
  <path d="M119.0,205.4L114.4,203.6L111.3,203.9L108.9,205.6L105.9,204.2L104.8,202.0L101.8,200.5L101.3,196.6L103.1,193.8L103.0,191.5L108.3,186.0L109.3,181.4L111.1,179.7L114.3,180.6L117.1,179.3L118.1,177.6L123.2,174.6L124.5,172.5L130.8,169.7L134.5,168.7L136.1,170.0L140.4,170.0L139.9,173.2L140.8,176.3L144.6,180.7L144.8,183.9L152.5,185.4L152.3,190.0L150.9,192.0L147.6,192.6L146.2,195.5L143.9,196.3L138.1,196.2L135.0,195.6L132.8,196.7L129.9,196.2L118.2,196.5L118.1,200.3L119.0,205.4Z" fill="none" stroke="#000" stroke-width="0.75" stroke-linejoin="round"/>
  <path d="M309.5,393.9L310.9,395.1L313.0,398.9L320.5,406.3L323.4,407.0L323.4,409.4L325.4,413.6L330.5,414.6L334.8,417.7L325.3,422.6L319.3,427.6L317.1,432.0L315.1,434.6L311.5,435.1L310.3,438.3L309.6,440.4L305.3,441.9L299.9,441.6L296.7,439.7L293.9,438.9L290.6,440.5L289.0,443.7L285.8,445.7L282.5,448.7L277.7,449.4L276.2,447.0L276.8,442.9L272.8,436.6L271.0,435.6L271.0,416.0L277.6,415.8L277.8,392.0L282.8,391.8L293.1,389.4L295.7,392.2L299.9,389.6L302.0,389.5L305.7,388.0L306.9,388.5L309.5,393.9Z" fill="none" stroke="#000" stroke-width="0.75" stroke-linejoin="round"/>
  <path d="M240.1,220.2L245.7,219.7L246.9,218.0L248.0,218.1L249.7,219.6L258.1,217.1L260.9,214.5L264.4,212.1L263.8,209.8L265.7,209.2L272.1,209.6L278.4,206.5L283.2,199.2L286.6,196.5L290.9,195.3L291.6,198.2L295.5,202.4L295.5,205.1L294.4,207.9L294.9,210.0L297.2,211.9L302.3,214.8L305.9,217.5L306.0,219.7L310.5,223.2L313.3,226.1L315.0,230.1L320.0,232.7L321.0,234.9L318.8,235.6L314.5,235.4L309.5,234.7L307.0,235.3L306.0,236.9L303.9,237.1L301.2,235.7L293.8,239.0L290.7,238.4L289.8,238.9L287.8,242.9L282.8,241.6L277.9,241.0L273.7,238.5L268.2,236.2L264.6,238.4L262.0,241.8L261.4,246.4L257.1,246.1L252.5,244.9L248.5,248.5L245.0,254.7L244.3,252.8L244.0,249.7L241.0,247.6L238.5,244.1L237.9,241.7L234.8,238.2L235.3,236.2L234.6,233.4L235.2,228.2L236.8,227.0L240.1,220.2Z" fill="none" stroke="#000" stroke-width="0.75" stroke-linejoin="round"/>
  <path d="M118.8,236.5L115.8,236.5L111.1,235.2L106.8,235.3L98.9,236.5L94.2,238.4L87.6,240.8L86.3,240.7L86.8,235.2L87.5,234.3L87.3,231.7L84.4,228.9L82.3,228.4L80.4,226.6L81.8,223.6L81.1,220.4L81.5,218.5L82.5,218.4L82.9,215.5L82.4,214.2L83.0,213.3L85.5,212.5L83.9,207.1L82.3,204.4L82.9,202.1L84.2,201.6L85.1,201.0L86.9,202.0L92.1,202.0L93.3,200.1L94.5,200.2L96.4,199.5L97.4,202.3L99.0,201.5L101.8,200.5L104.8,202.0L105.9,204.2L108.9,205.6L111.3,203.9L114.4,203.6L119.0,205.4L120.8,214.9L118.0,220.5L116.2,228.1L119.1,233.8L118.8,236.5Z" fill="none" stroke="#000" stroke-width="0.75" stroke-linejoin="round"/>
  <path d="M225.4,254.7L224.6,254.3L220.6,255.2L216.5,254.3L213.4,254.7L202.5,254.6L203.4,249.3L200.8,244.9L197.8,243.8L196.4,240.8L194.7,239.8L194.8,237.9L196.5,233.2L199.7,226.8L201.6,226.7L205.6,222.8L208.1,222.7L211.9,225.4L216.5,223.2L217.1,220.4L218.6,217.7L219.7,214.3L223.2,211.6L224.6,206.9L226.0,205.4L226.9,201.9L228.7,197.6L234.4,192.5L234.7,190.2L235.4,189.0L232.8,186.4L233.0,184.2L234.9,183.8L237.5,188.1L238.0,192.6L237.8,197.0L241.4,203.1L237.7,203.0L235.8,203.5L232.7,202.8L231.3,206.0L235.2,209.9L238.1,211.0L239.1,213.8L241.2,218.4L240.1,220.2L236.8,227.0L235.2,228.2L234.6,233.4L235.3,236.2L234.8,238.2L237.9,241.7L238.5,244.1L241.0,247.6L244.0,249.7L244.3,252.8L245.0,254.7L244.6,258.3L239.2,256.7L233.8,255.0L225.4,254.7Z" fill="none" stroke="#000" stroke-width="0.75" stroke-linejoin="round"/>
  <path d="M344.2,246.4L343.8,254.2L346.5,255.1L344.3,257.5L341.7,259.3L339.2,262.8L337.8,265.9L337.4,271.2L335.9,273.8L335.8,278.8L333.9,280.7L333.6,284.7L332.7,285.2L332.1,288.9L333.8,291.9L334.2,300.0L335.4,306.1L334.7,309.6L336.1,313.5L340.0,317.2L343.6,325.7L340.9,325.0L331.9,326.1L330.1,326.9L328.2,331.2L329.7,334.1L328.6,342.1L327.7,348.8L329.5,350.0L334.2,352.6L336.0,351.4L336.6,358.6L331.5,358.5L328.7,354.8L326.3,352.0L321.1,351.0L319.6,347.5L315.6,349.6L310.2,348.7L308.0,345.7L303.7,345.1L300.6,345.2L300.2,343.1L297.9,343.0L294.8,342.6L290.7,343.6L287.8,343.4L286.1,344.0L286.5,336.1L284.3,333.6L283.8,329.5L284.8,325.4L283.4,322.9L283.3,318.6L275.2,318.7L275.7,316.3L272.3,316.3L272.0,317.5L267.8,317.7L266.1,321.6L265.1,323.3L261.4,322.4L259.2,323.3L254.8,323.9L252.2,320.4L250.7,318.2L248.8,314.2L247.1,309.2L227.4,309.1L225.0,309.9L223.1,309.8L220.3,310.7L219.4,308.6L221.1,307.9L221.3,305.0L222.4,303.3L224.9,301.9L226.6,302.5L228.9,300.0L232.5,300.0L233.0,301.9L235.5,303.1L239.4,298.9L243.3,295.7L245.0,293.5L244.8,288.0L247.7,281.5L250.7,278.1L255.1,274.8L255.9,272.7L256.1,270.3L257.2,267.9L256.8,264.1L257.7,258.2L259.0,254.0L261.0,250.5L261.4,246.4L262.0,241.8L264.6,238.4L268.2,236.2L273.7,238.5L277.9,241.0L282.8,241.6L287.8,242.9L289.8,238.9L290.7,238.4L293.8,239.0L301.2,235.7L303.9,237.1L306.0,236.9L307.0,235.3L309.5,234.7L314.5,235.4L318.8,235.6L321.0,234.9L325.1,240.4L328.1,241.2L329.9,240.1L333.0,240.5L336.7,239.1L338.3,242.0L344.2,246.4Z" fill="none" stroke="#000" stroke-width="0.75" stroke-linejoin="round"/>
  <path d="M224.9,301.9L222.3,299.6L220.3,300.7L217.6,303.6L212.1,296.5L217.2,292.8L214.7,288.4L217.0,286.7L221.5,285.9L222.0,282.9L225.6,286.1L231.5,286.4L233.6,283.2L234.4,278.8L233.7,273.6L230.5,269.6L233.4,261.9L231.8,260.5L226.8,261.1L224.9,257.6L225.4,254.7L233.8,255.0L239.2,256.7L244.6,258.3L245.0,254.7L248.5,248.5L252.5,244.9L257.1,246.1L261.4,246.4L261.0,250.5L259.0,254.0L257.7,258.2L256.8,264.1L257.2,267.9L256.1,270.3L255.9,272.7L255.1,274.8L250.7,278.1L247.7,281.5L244.8,288.0L245.0,293.5L243.3,295.7L239.4,298.9L235.5,303.1L233.0,301.9L232.5,300.0L228.9,300.0L226.6,302.5L224.9,301.9Z" fill="none" stroke="#000" stroke-width="0.75" stroke-linejoin="round"/>
  <path d="M426.1,184.9L427.7,187.0L427.5,189.8L423.7,191.4L426.6,193.2L424.1,196.8L422.6,195.6L421.0,196.1L417.3,195.9L417.2,193.9L416.6,192.1L418.9,188.9L421.2,186.0L424.1,186.5L426.1,184.9Z" fill="none" stroke="#000" stroke-width="0.75" stroke-linejoin="round"/>
  <path d="M218.2,112.8L195.3,125.6L175.9,138.7L166.5,141.7L159.0,142.4L159.0,138.1L155.9,137.0L151.7,135.1L150.1,132.0L127.5,117.4L105.0,102.8L79.8,86.6L79.9,85.3L79.9,84.9L79.9,76.9L90.7,72.0L97.4,71.0L102.8,69.2L105.4,65.8L113.2,63.2L113.5,58.2L117.4,57.6L120.4,55.2L129.2,54.0L130.4,51.4L128.6,50.0L126.3,42.9L125.9,38.9L123.4,34.6L129.8,30.9L137.1,29.8L141.3,27.0L147.7,25.0L159.1,23.8L170.1,23.2L173.5,24.2L179.8,21.6L187.0,21.5L189.7,23.1L194.2,22.7L192.9,26.1L194.0,32.5L192.4,38.0L188.3,41.8L188.8,46.8L194.3,50.8L194.4,52.4L198.5,55.1L201.3,67.1L203.5,73.0L203.9,76.1L202.7,81.6L203.2,84.6L202.3,88.3L202.9,92.5L200.3,95.3L204.2,100.2L204.5,103.0L206.8,106.8L210.0,105.5L215.3,108.7L218.2,112.8Z" fill="none" stroke="#000" stroke-width="0.75" stroke-linejoin="round"/>
  <path d="M371.5,72.5L369.7,75.2L368.2,80.3L366.4,83.7L364.8,84.9L362.6,82.7L359.6,79.8L354.8,70.2L354.1,70.8L356.9,77.8L361.0,84.6L366.1,95.0L368.5,98.6L370.7,102.4L376.7,109.8L375.4,111.0L375.6,115.3L383.4,121.3L384.5,122.7L358.0,122.7L332.1,122.7L305.2,122.7L305.2,98.1L305.2,74.3L303.2,68.9L304.9,64.7L303.8,61.9L306.3,58.7L315.2,58.6L321.6,60.3L328.2,62.3L331.3,63.4L336.5,61.2L339.2,59.3L345.1,58.8L349.9,59.6L351.7,62.9L353.3,60.7L358.6,62.3L363.9,62.7L367.1,61.0L371.5,72.5Z" fill="none" stroke="#000" stroke-width="0.75" stroke-linejoin="round"/>
  <path d="M421.2,186.0L419.0,183.8L416.2,179.9L413.2,177.7L411.5,175.4L405.7,172.7L401.1,172.7L399.5,171.3L395.6,172.8L391.5,169.8L389.4,174.8L381.6,173.4L380.9,170.7L383.8,160.9L384.5,156.4L386.6,154.4L391.5,153.3L394.9,149.5L398.8,157.2L400.6,163.3L404.3,166.6L413.4,172.9L417.1,176.7L420.7,180.6L422.8,182.9L426.1,184.9L424.1,186.5L421.2,186.0Z" fill="none" stroke="#000" stroke-width="0.75" stroke-linejoin="round"/>
  <path d="M391.5,169.8L395.6,172.8L399.5,171.3L401.1,172.7L405.7,172.7L411.5,175.4L413.2,177.7L416.2,179.9L419.0,183.8L421.2,186.0L418.9,188.9L416.6,192.1L417.2,193.9L417.3,195.9L421.0,196.1L422.6,195.6L424.1,196.8L422.6,199.1L425.1,202.8L427.6,206.0L430.1,208.4L452.0,216.4L457.6,216.3L438.7,236.4L430.0,236.7L424.0,241.4L419.8,241.5L417.9,243.7L413.4,243.7L410.7,241.4L404.5,244.2L402.6,247.0L398.1,246.5L396.6,245.7L395.1,245.9L392.9,245.8L384.5,240.1L379.8,240.1L377.5,237.9L377.5,234.2L374.1,233.0L370.1,225.8L367.0,224.2L365.9,221.5L362.5,218.3L358.4,217.8L360.7,214.0L364.2,213.8L365.2,211.8L365.1,205.8L367.1,198.8L370.3,196.9L370.9,194.1L373.8,189.0L377.8,185.7L380.6,179.1L381.6,173.4L389.4,174.8L391.5,169.8Z" fill="none" stroke="#000" stroke-width="0.75" stroke-linejoin="round"/>
  <path d="M212.1,296.5L205.3,289.7L200.8,284.2L196.8,277.3L197.0,275.1L198.4,272.9L200.1,268.1L201.4,263.1L203.7,262.7L213.4,262.8L213.4,254.7L216.5,254.3L220.6,255.2L224.6,254.3L225.4,254.7L224.9,257.6L226.8,261.1L231.8,260.5L233.4,261.9L230.5,269.6L233.7,273.6L234.4,278.8L233.6,283.2L231.5,286.4L225.6,286.1L222.0,282.9L221.5,285.9L217.0,286.7L214.7,288.4L217.2,292.8L212.1,296.5Z" fill="none" stroke="#000" stroke-width="0.75" stroke-linejoin="round"/>
  <path d="M145.0,230.2L134.5,234.1L130.8,236.4L124.8,238.4L118.8,236.5L119.1,233.8L116.2,228.1L118.0,220.5L120.8,214.9L119.0,205.4L118.1,200.3L118.2,196.5L129.9,196.2L132.8,196.7L135.0,195.6L138.1,196.2L137.6,198.2L140.4,201.7L140.4,206.6L141.0,211.8L142.7,214.3L141.2,220.3L141.7,223.6L143.5,227.9L145.0,230.2Z" fill="none" stroke="#000" stroke-width="0.75" stroke-linejoin="round"/>
  <path d="M81.5,218.5L79.6,218.3L78.2,221.0L76.3,220.9L75.0,219.5L75.4,216.8L72.6,212.7L70.9,213.5L69.5,213.6L67.6,214.0L67.7,211.6L66.6,209.8L66.8,207.9L65.4,205.1L63.5,202.7L58.2,202.7L56.6,203.9L54.8,204.1L53.6,205.5L52.9,207.4L49.3,210.3L46.4,206.4L43.8,203.7L42.0,202.9L40.4,201.5L39.6,198.6L38.6,197.1L36.7,196.0L39.7,192.8L41.7,192.9L43.4,191.8L44.9,191.7L46.0,190.9L45.4,188.6L46.1,187.9L46.3,185.7L49.5,185.7L54.3,187.4L55.8,187.2L56.3,186.5L59.9,187.0L60.9,186.6L61.3,189.1L62.3,189.1L64.1,188.2L65.2,188.4L67.0,190.1L69.9,190.6L71.7,189.2L73.9,188.3L75.5,187.4L76.8,187.5L78.3,189.0L79.1,190.8L81.9,193.6L80.5,195.4L80.2,197.5L81.7,196.9L82.5,197.7L82.1,199.7L84.2,201.6L82.9,202.1L82.3,204.4L83.9,207.1L85.5,212.5L83.0,213.3L82.4,214.2L82.9,215.5L82.5,218.4L81.5,218.5Z" fill="none" stroke="#000" stroke-width="0.75" stroke-linejoin="round"/>
  <path d="M25.2,181.9L26.1,178.9L33.4,178.7L34.9,177.1L37.0,177.0L39.7,178.7L41.7,178.7L43.9,177.6L45.3,179.5L42.4,181.0L39.5,180.9L36.6,179.5L34.1,181.0L32.9,181.1L31.3,182.0L25.2,181.9Z" fill="none" stroke="#000" stroke-width="0.75" stroke-linejoin="round"/>
  <path d="M36.7,196.0L33.1,193.2L30.3,192.8L28.8,190.9L28.8,189.9L26.8,188.4L26.3,187.0L29.9,185.9L32.1,186.1L33.9,185.4L46.3,185.7L46.1,187.9L45.4,188.6L46.0,190.9L44.9,191.7L43.4,191.8L41.7,192.9L39.7,192.8L36.7,196.0Z" fill="none" stroke="#000" stroke-width="0.75" stroke-linejoin="round"/>
  <path d="M201.4,263.1L200.2,262.1L202.5,254.6L213.4,254.7L213.4,262.8L203.7,262.7L201.4,263.1Z" fill="none" stroke="#000" stroke-width="0.75" stroke-linejoin="round"/>
  <path d="M86.3,240.7L84.6,240.7L77.7,237.5L71.6,232.5L65.9,228.8L61.4,224.5L63.0,222.3L63.3,220.4L66.4,216.8L69.5,213.6L70.9,213.5L72.6,212.7L75.4,216.8L75.0,219.5L76.3,220.9L78.2,221.0L79.6,218.3L81.5,218.5L81.1,220.4L81.8,223.6L80.4,226.6L82.3,228.4L84.4,228.9L87.3,231.7L87.5,234.3L86.8,235.2L86.3,240.7Z" fill="none" stroke="#000" stroke-width="0.75" stroke-linejoin="round"/>
  <path d="M237.3,116.9L232.5,119.4L228.8,115.7L218.2,112.8L215.3,108.7L210.0,105.5L206.8,106.8L204.5,103.0L204.2,100.2L200.3,95.3L202.9,92.5L202.3,88.3L203.2,84.6L202.7,81.6L203.9,76.1L203.5,73.0L201.3,67.1L204.6,65.6L205.2,62.7L204.5,60.0L209.1,57.4L211.1,55.2L214.4,53.3L214.8,48.2L222.6,50.5L225.4,49.9L231.0,51.0L239.9,54.0L243.0,60.0L249.0,61.3L258.5,64.1L265.6,67.4L268.9,65.7L272.1,62.6L270.5,57.5L272.6,54.2L277.4,51.1L282.0,50.2L291.1,51.5L293.4,54.5L295.9,54.5L298.0,55.7L304.6,56.5L306.3,58.7L303.8,61.9L304.9,64.7L303.2,68.9L305.2,74.3L305.2,98.1L305.2,122.7L305.2,136.1L297.5,136.1L297.4,138.9L270.7,126.1L244.0,113.3L237.3,116.9Z" fill="none" stroke="#000" stroke-width="0.75" stroke-linejoin="round"/>
  <path d="M331.8,463.6L334.1,465.6L332.0,468.9L330.9,471.0L327.2,472.1L326.0,474.2L323.6,474.9L318.5,469.7L322.1,465.5L325.7,462.9L328.9,461.5L331.8,463.6Z" fill="none" stroke="#000" stroke-width="0.75" stroke-linejoin="round"/>
  <path d="M103.2,30.7L107.2,33.5L113.6,33.0L120.5,34.5L123.4,34.6L125.9,38.9L126.3,42.9L128.6,50.0L130.4,51.4L129.2,54.0L120.4,55.2L117.4,57.6L113.5,58.2L113.2,63.2L105.4,65.8L102.8,69.2L97.4,71.0L90.7,72.0L79.9,76.9L79.9,84.9L78.9,84.9L78.9,84.9L79.1,88.4L74.9,88.6L72.8,90.2L69.7,90.2L67.3,89.3L61.7,90.0L59.5,95.2L57.4,95.7L54.3,104.2L45.0,111.4L42.8,120.6L40.0,123.6L39.2,126.0L24.2,126.6L24.0,126.6L24.4,123.5L26.9,121.6L29.1,118.1L28.7,115.9L31.0,111.2L34.7,106.9L37.0,105.8L38.7,101.9L38.9,98.4L41.3,94.2L45.8,91.8L50.0,85.0L50.1,84.9L53.5,82.3L59.7,81.6L65.0,77.0L68.3,75.2L73.9,69.6L72.3,61.3L74.8,55.5L75.7,52.0L80.0,47.5L86.7,44.4L91.7,41.7L96.1,34.7L98.2,30.6L103.2,30.7Z" fill="none" stroke="#000" stroke-width="0.75" stroke-linejoin="round"/>
  <path d="M469.4,353.3L471.1,356.1L472.8,360.6L473.9,368.6L475.6,371.7L474.9,374.9L473.8,376.9L471.5,373.0L470.2,375.0L471.5,379.9L470.9,382.8L469.1,384.3L468.6,390.0L466.0,397.8L462.7,407.0L458.6,419.7L456.0,429.0L453.0,436.7L447.5,438.3L441.7,441.1L437.9,439.4L432.5,437.0L430.7,433.5L430.3,427.6L427.9,422.3L427.3,417.4L428.5,412.6L431.6,411.5L431.6,409.2L434.8,404.2L435.4,399.9L433.8,396.7L432.6,392.5L432.0,386.3L434.4,382.6L435.3,378.4L438.6,378.1L442.3,376.7L444.8,375.5L447.7,375.4L451.6,371.6L457.1,367.5L459.1,364.1L458.2,361.3L461.0,362.1L464.7,357.4L464.8,353.4L467.0,350.4L469.4,353.3Z" fill="none" stroke="#000" stroke-width="0.75" stroke-linejoin="round"/>
  <path d="M56.5,172.1L58.7,170.9L59.9,166.9L62.0,166.8L66.7,168.6L70.4,167.3L73.0,167.8L74.0,166.3L100.9,166.2L102.4,161.5L101.2,160.7L98.0,131.8L94.7,102.9L105.0,102.8L127.5,117.4L150.1,132.0L151.7,135.1L155.9,137.0L159.0,138.1L159.0,142.4L166.5,141.7L166.5,157.1L162.8,161.6L162.3,165.7L156.3,166.8L147.2,167.4L144.7,169.7L140.4,170.0L136.1,170.0L134.5,168.7L130.8,169.7L124.5,172.5L123.2,174.6L118.1,177.6L117.1,179.3L114.3,180.6L111.1,179.7L109.3,181.4L108.3,186.0L103.0,191.5L103.1,193.8L101.3,196.6L101.8,200.5L99.0,201.5L97.4,202.3L96.4,199.5L94.5,200.2L93.3,200.1L92.1,202.0L86.9,202.0L85.1,201.0L84.2,201.6L82.1,199.7L82.5,197.7L81.7,196.9L80.2,197.5L80.5,195.4L81.9,193.6L79.1,190.8L78.3,189.0L76.8,187.5L75.5,187.4L73.9,188.3L71.7,189.2L69.9,190.6L67.0,190.1L65.2,188.4L64.1,188.2L62.3,189.1L61.3,189.1L60.9,186.6L61.2,184.5L60.6,182.0L58.1,180.1L56.8,176.2L56.5,172.1Z" fill="none" stroke="#000" stroke-width="0.75" stroke-linejoin="round"/>
  <path d="M369.1,346.9L374.2,346.4L382.2,348.3L383.9,347.4L388.6,347.3L391.0,345.3L395.0,345.4L402.3,342.8L407.6,338.9L408.7,341.9L408.4,348.6L409.3,354.4L409.5,364.9L410.7,368.2L408.7,372.9L406.1,377.6L401.9,381.7L395.7,384.3L388.2,387.5L380.6,394.7L378.1,395.9L373.4,400.7L370.6,402.2L370.1,407.0L373.2,412.1L374.6,416.0L374.6,418.0L375.8,417.7L375.6,424.2L374.6,427.3L376.1,428.5L375.1,431.3L372.3,433.6L366.8,435.9L358.8,439.5L355.8,442.0L356.4,444.8L358.1,445.3L357.5,448.8L352.5,448.7L351.9,445.8L350.9,442.8L350.3,440.4L351.5,432.9L349.8,428.2L346.6,418.7L353.6,411.1L355.4,406.3L356.4,405.7L357.2,401.8L356.1,399.8L356.4,394.8L357.7,390.2L357.7,381.7L354.2,379.5L351.0,379.1L349.6,377.4L346.5,376.0L340.9,376.1L340.4,373.6L339.8,368.9L360.1,363.3L364.0,366.6L365.8,365.9L368.4,367.6L368.8,370.3L367.4,373.4L367.9,378.1L372.3,382.3L374.3,377.6L377.2,376.2L376.7,367.6L373.9,362.8L371.4,360.6L369.1,360.7L367.2,352.0L369.1,346.9Z" fill="none" stroke="#000" stroke-width="0.75" stroke-linejoin="round"/>
  <path d="M56.5,172.1L52.1,167.5L48.0,162.6L43.6,160.8L40.4,158.8L36.7,158.9L33.4,160.4L30.1,159.8L27.8,161.9L27.2,158.3L29.1,155.0L29.9,148.7L29.2,142.1L28.3,138.8L29.0,135.5L27.3,132.3L23.8,129.4L25.2,127.2L51.4,127.2L50.1,117.5L51.8,114.1L58.1,113.5L57.8,96.4L79.8,96.7L79.8,86.6L105.0,102.8L94.7,102.9L98.0,131.8L101.2,160.7L102.4,161.5L100.9,166.2L74.0,166.3L73.0,167.8L70.4,167.3L66.7,168.6L62.0,166.8L59.9,166.9L58.7,170.9L56.5,172.1Z" fill="none" stroke="#000" stroke-width="0.75" stroke-linejoin="round"/>
  <path d="M369.1,346.9L367.2,352.0L369.1,360.7L371.4,360.6L373.9,362.8L376.7,367.6L377.2,376.2L374.3,377.6L372.3,382.3L367.9,378.1L367.4,373.4L368.8,370.3L368.4,367.6L365.8,365.9L364.0,366.6L360.1,363.3L356.6,361.6L358.6,355.4L360.7,353.1L359.4,347.5L360.8,342.1L361.9,340.3L360.2,334.6L357.1,331.6L363.6,332.9L365.0,334.7L367.2,337.8L369.1,346.9Z" fill="none" stroke="#000" stroke-width="0.75" stroke-linejoin="round"/>
  <path d="M247.3,461.1L242.3,456.0L239.7,451.1L238.2,444.6L236.5,439.8L234.3,429.5L234.2,421.4L233.3,417.8L230.7,415.0L227.2,409.5L223.7,401.5L222.3,397.3L216.8,390.8L216.4,385.6L219.6,384.4L223.6,383.2L228.0,383.4L232.0,386.4L233.0,386.0L260.1,385.7L264.7,388.9L280.9,389.8L293.2,387.1L298.7,385.6L303.0,386.0L305.7,387.5L305.7,388.0L302.0,389.5L299.9,389.6L295.7,392.2L293.1,389.4L282.8,391.8L277.8,392.0L277.6,415.8L271.0,416.0L271.0,435.6L271.0,460.3L265.0,463.7L261.4,464.2L257.2,462.9L254.2,462.4L253.1,459.6L250.5,457.7L247.3,461.1Z" fill="none" stroke="#000" stroke-width="0.75" stroke-linejoin="round"/>
  <path d="M152.3,190.0L152.5,185.4L144.8,183.9L144.6,180.7L140.8,176.3L139.9,173.2L140.4,170.0L144.7,169.7L147.2,167.4L156.3,166.8L162.3,165.7L162.8,161.6L166.5,157.1L166.5,141.7L175.9,138.7L195.3,125.6L218.2,112.8L228.8,115.7L232.5,119.4L237.3,116.9L238.9,127.3L241.4,129.1L241.5,131.2L244.3,133.5L242.9,136.4L240.3,149.9L239.9,158.6L231.4,164.9L228.5,173.8L231.3,176.2L231.3,180.5L235.6,180.7L234.9,183.8L233.0,184.2L232.8,186.4L231.5,186.5L227.0,179.2L225.4,178.9L220.2,182.7L215.0,180.7L211.4,180.3L209.5,181.3L205.6,181.0L201.6,183.9L198.2,184.1L190.1,180.6L187.0,182.2L183.5,182.1L181.0,179.6L174.3,177.1L167.1,177.9L165.4,179.3L164.5,183.2L162.5,185.9L162.1,191.9L157.0,188.0L154.6,188.0L152.3,190.0Z" fill="none" stroke="#000" stroke-width="0.75" stroke-linejoin="round"/>
  <path d="M194.8,237.9L187.8,240.4L185.3,240.0L182.7,241.5L177.4,241.4L173.8,237.2L171.6,232.3L166.9,227.9L161.8,228.0L155.9,228.0L156.3,217.2L156.1,213.0L157.4,208.7L159.5,206.7L162.7,202.5L162.0,200.8L163.3,198.1L161.8,194.1L162.1,191.9L162.5,185.9L164.5,183.2L165.4,179.3L167.1,177.9L174.3,177.1L181.0,179.6L183.5,182.1L187.0,182.2L190.1,180.6L198.2,184.1L201.6,183.9L205.6,181.0L209.5,181.3L211.4,180.3L215.0,180.7L220.2,182.7L225.4,178.9L227.0,179.2L231.5,186.5L232.8,186.4L235.4,189.0L234.7,190.2L234.4,192.5L228.7,197.6L226.9,201.9L226.0,205.4L224.6,206.9L223.2,211.6L219.7,214.3L218.6,217.7L217.1,220.4L216.5,223.2L211.9,225.4L208.1,222.7L205.6,222.8L201.6,226.7L199.7,226.8L196.5,233.2L194.8,237.9Z" fill="none" stroke="#000" stroke-width="0.75" stroke-linejoin="round"/>
  <path d="M341.4,277.5L344.1,281.2L343.7,285.2L341.8,286.0L338.2,285.6L336.2,289.4L332.1,288.9L332.7,285.2L333.6,284.7L333.9,280.7L335.8,278.8L337.4,279.5L341.4,277.5Z" fill="none" stroke="#000" stroke-width="0.75" stroke-linejoin="round"/>
  <path d="M79.1,88.4L78.9,84.9L79.9,84.9L79.9,85.3L79.8,86.6L79.8,96.7L57.8,96.4L58.1,113.5L51.8,114.1L50.1,117.5L51.4,127.2L25.2,127.2L23.8,129.4L24.0,126.6L24.2,126.6L39.2,126.0L40.0,123.6L42.8,120.6L45.0,111.4L54.3,104.2L57.4,95.7L59.5,95.2L61.7,90.0L67.3,89.3L69.7,90.2L72.8,90.2L74.9,88.6L79.1,88.4Z" fill="none" stroke="#000" stroke-width="0.75" stroke-linejoin="round"/>
  <path d="M365.1,206.6L364.2,206.4L364.3,203.1L363.5,200.8L360.1,198.2L359.3,193.3L360.1,188.4L357.0,187.9L356.5,189.4L352.5,189.8L354.1,191.7L354.7,195.7L351.0,199.4L347.7,204.2L344.2,204.9L338.6,201.0L336.1,202.4L335.4,204.4L331.9,205.6L331.7,207.0L325.0,207.0L324.1,205.6L319.3,205.4L316.9,206.5L315.0,206.0L311.6,202.1L310.5,200.2L305.6,201.1L303.8,204.2L302.1,210.2L299.8,211.5L297.7,212.2L297.2,211.9L294.9,210.0L294.4,207.9L295.5,205.1L295.5,202.4L291.6,198.2L290.9,195.3L291.0,193.7L288.5,191.7L288.4,187.9L287.0,185.3L284.7,185.7L285.3,183.2L287.1,180.4L286.3,177.6L288.5,175.6L287.1,174.0L288.9,169.9L291.9,165.0L297.7,165.4L297.4,138.9L297.5,136.1L305.2,136.1L305.2,122.7L332.1,122.7L358.0,122.7L384.5,122.7L386.7,129.3L385.2,130.5L386.2,137.4L388.7,145.3L391.2,147.0L394.9,149.5L391.5,153.3L386.6,154.4L384.5,156.4L383.8,160.9L380.9,170.7L381.6,173.4L380.6,179.1L377.8,185.7L373.8,189.0L370.9,194.1L370.3,196.9L367.1,198.8L365.1,205.8L365.1,206.6Z" fill="none" stroke="#000" stroke-width="0.75" stroke-linejoin="round"/>
  <path d="M365.1,206.6L365.2,211.8L364.2,213.8L360.7,214.0L358.4,217.8L362.5,218.3L365.9,221.5L367.0,224.2L370.1,225.8L374.1,233.0L369.5,237.4L365.4,241.4L361.3,244.5L356.6,244.5L351.2,246.1L346.9,244.6L344.2,246.4L338.3,242.0L336.7,239.1L333.0,240.5L329.9,240.1L328.1,241.2L325.1,240.4L321.0,234.9L320.0,232.7L315.0,230.1L313.3,226.1L310.5,223.2L306.0,219.7L305.9,217.5L302.3,214.8L297.7,212.2L299.8,211.5L302.1,210.2L303.8,204.2L305.6,201.1L310.5,200.2L311.6,202.1L315.0,206.0L316.9,206.5L319.3,205.4L324.1,205.6L325.0,207.0L331.7,207.0L331.9,205.6L335.4,204.4L336.1,202.4L338.6,201.0L344.2,204.9L347.7,204.2L351.0,199.4L354.7,195.7L354.1,191.7L352.5,189.8L356.5,189.4L357.0,187.9L360.1,188.4L359.3,193.3L360.1,198.2L363.5,200.8L364.3,203.1L364.2,206.4L365.1,206.6Z" fill="none" stroke="#000" stroke-width="0.75" stroke-linejoin="round"/>
  <path d="M26.1,178.9L23.3,173.7L20.0,171.3L22.9,170.1L26.2,165.4L27.8,161.9L30.1,159.8L33.4,160.4L36.7,158.9L40.4,158.8L43.6,160.8L48.0,162.6L52.1,167.5L56.5,172.1L56.8,176.2L58.1,180.1L60.6,182.0L61.2,184.5L60.9,186.6L59.9,187.0L56.3,186.5L55.8,187.2L54.3,187.4L49.5,185.7L46.3,185.7L33.9,185.4L32.1,186.1L29.9,185.9L26.3,187.0L25.2,181.9L31.3,182.0L32.9,181.1L34.1,181.0L36.6,179.5L39.5,180.9L42.4,181.0L45.3,179.5L43.9,177.6L41.7,178.7L39.7,178.7L37.0,177.0L34.9,177.1L33.4,178.7L26.1,178.9Z" fill="none" stroke="#000" stroke-width="0.75" stroke-linejoin="round"/>
  <path d="M61.4,224.5L59.6,224.0L54.8,221.3L51.3,217.7L50.1,215.3L49.3,210.3L52.9,207.4L53.6,205.5L54.8,204.1L56.6,203.9L58.2,202.7L63.5,202.7L65.4,205.1L66.8,207.9L66.6,209.8L67.7,211.6L67.6,214.0L69.5,213.6L66.4,216.8L63.3,220.4L63.0,222.3L61.4,224.5Z" fill="none" stroke="#000" stroke-width="0.75" stroke-linejoin="round"/>
  <path d="M465.3,206.6L462.3,210.7L457.6,216.3L452.0,216.4L430.1,208.4L427.6,206.0L425.1,202.8L422.6,199.1L424.1,196.8L426.6,193.2L428.7,194.4L430.0,197.2L433.1,200.0L436.4,200.0L442.7,198.3L450.0,197.5L455.9,195.4L459.2,195.0L461.6,193.8L465.4,193.5L465.3,193.6L465.3,196.4L465.3,203.1L465.3,206.6Z" fill="none" stroke="#000" stroke-width="0.75" stroke-linejoin="round"/>
  <path d="M470.6,192.4L474.1,191.7L477.3,189.4L479.8,189.4L480.0,191.3L479.4,195.2L479.4,198.7L478.0,201.1L476.1,208.3L472.9,215.8L468.8,224.3L463.0,234.2L457.3,241.6L449.4,250.8L442.7,256.2L432.7,262.8L426.5,267.9L419.2,276.0L417.6,279.5L416.1,281.1L412.2,275.6L412.1,251.2L417.9,243.7L419.8,241.5L424.0,241.4L430.0,236.7L438.7,236.4L457.6,216.3L462.3,210.7L465.3,206.6L465.3,203.1L465.3,196.4L465.3,193.6L465.4,193.5L467.5,193.4L470.6,192.4Z" fill="none" stroke="#000" stroke-width="0.75" stroke-linejoin="round"/>
  <path d="M352.5,448.7L351.1,451.7L347.2,452.4L343.2,448.8L343.1,446.5L345.0,444.0L345.6,442.0L347.5,441.5L350.9,442.8L351.9,445.8L352.5,448.7Z" fill="none" stroke="#000" stroke-width="0.75" stroke-linejoin="round"/>
  <path d="M234.9,183.8L235.6,180.7L231.3,180.5L231.3,176.2L228.5,173.8L231.4,164.9L239.9,158.6L240.3,149.9L242.9,136.4L244.3,133.5L241.5,131.2L241.4,129.1L238.9,127.3L237.3,116.9L244.0,113.3L270.7,126.1L297.4,138.9L297.7,165.4L291.9,165.0L288.9,169.9L287.1,174.0L288.5,175.6L286.3,177.6L287.1,180.4L285.3,183.2L284.7,185.7L287.0,185.3L288.4,187.9L288.5,191.7L291.0,193.7L290.9,195.3L286.6,196.5L283.2,199.2L278.4,206.5L272.1,209.6L265.7,209.2L263.8,209.8L264.4,212.1L260.9,214.5L258.1,217.1L249.7,219.6L248.0,218.1L246.9,218.0L245.7,219.7L240.1,220.2L241.2,218.4L239.1,213.8L238.1,211.0L235.2,209.9L231.3,206.0L232.7,202.8L235.8,203.5L237.7,203.0L241.4,203.1L237.8,197.0L238.0,192.6L237.5,188.1L234.9,183.8Z" fill="none" stroke="#000" stroke-width="0.75" stroke-linejoin="round"/>
  <path d="M150.4,228.8L145.0,230.2L143.5,227.9L141.7,223.6L141.2,220.3L142.7,214.3L141.0,211.8L140.4,206.6L140.4,201.7L137.6,198.2L138.1,196.2L143.9,196.3L143.1,199.8L145.1,201.8L147.4,204.1L147.7,207.4L149.0,208.8L148.7,224.2L150.4,228.8Z" fill="none" stroke="#000" stroke-width="0.75" stroke-linejoin="round"/>
  <path d="M201.3,67.1L198.5,55.1L194.4,52.4L194.3,50.8L188.8,46.8L188.3,41.8L192.4,38.0L194.0,32.5L192.9,26.1L194.2,22.7L201.5,20.0L206.2,20.8L206.0,24.2L211.7,21.7L212.2,23.0L208.8,26.3L208.8,29.4L211.1,31.0L210.2,36.8L205.8,40.2L207.1,43.8L210.5,44.0L212.2,47.1L214.8,48.2L214.4,53.3L211.1,55.2L209.1,57.4L204.5,60.0L205.2,62.7L204.6,65.6L201.3,67.1Z" fill="none" stroke="#000" stroke-width="0.75" stroke-linejoin="round"/>
  <path d="M364.7,276.2L365.9,277.0L390.1,290.6L390.6,294.5L400.2,301.2L397.1,309.4L397.5,313.2L401.8,315.6L402.0,317.4L400.1,321.4L400.5,323.4L400.1,326.6L402.4,330.8L405.2,337.4L407.6,338.9L402.3,342.8L395.0,345.4L391.0,345.3L388.6,347.3L383.9,347.4L382.2,348.3L374.2,346.4L369.1,346.9L367.2,337.8L365.0,334.7L363.6,332.9L357.1,331.6L353.3,329.6L349.0,328.5L346.4,327.4L343.6,325.7L340.0,317.2L336.1,313.5L334.7,309.6L335.4,306.1L334.2,300.0L337.0,299.7L339.4,297.2L342.0,293.7L343.6,292.3L343.6,290.2L342.1,288.7L341.8,286.0L343.7,285.2L344.1,281.2L341.4,277.5L343.8,276.7L351.1,276.7L364.7,276.2Z" fill="none" stroke="#000" stroke-width="0.75" stroke-linejoin="round"/>
  <path d="M351.1,276.7L343.8,276.7L341.4,277.5L337.4,279.5L335.8,278.8L335.9,273.8L337.4,271.2L337.8,265.9L339.2,262.8L341.7,259.3L344.3,257.5L346.5,255.1L343.8,254.2L344.2,246.4L346.9,244.6L351.2,246.1L356.6,244.5L361.3,244.5L365.4,241.4L368.6,246.1L369.4,249.4L372.3,257.1L369.9,262.0L366.6,266.4L364.7,269.1L364.7,276.2L351.1,276.7Z" fill="none" stroke="#000" stroke-width="0.75" stroke-linejoin="round"/>
  <path d="M348.8,465.6L347.5,466.6L344.6,470.0L342.8,473.4L339.0,478.2L331.4,485.1L326.7,489.1L321.7,492.2L314.7,494.8L311.2,495.1L310.4,497.0L306.3,496.0L303.0,497.2L295.8,496.0L291.7,496.8L288.9,496.4L282.0,499.1L276.3,500.1L272.2,502.7L269.1,502.8L266.3,500.4L264.1,500.3L261.2,497.3L260.9,498.2L260.0,496.4L260.0,492.5L257.8,488.0L260.0,486.8L259.8,481.7L255.4,475.4L252.1,469.8L252.1,469.7L247.3,461.1L250.5,457.7L253.1,459.6L254.2,462.4L257.2,462.9L261.4,464.2L265.0,463.7L271.0,460.3L271.0,435.6L272.8,436.6L276.8,442.9L276.2,447.0L277.7,449.4L282.5,448.7L285.8,445.7L289.0,443.7L290.6,440.5L293.9,438.9L296.7,439.7L299.9,441.6L305.3,441.9L309.6,440.4L310.3,438.3L311.5,435.1L315.1,434.6L317.1,432.0L319.3,427.6L325.3,422.6L334.8,417.7L337.5,417.7L340.8,418.9L343.0,418.1L346.6,418.7L349.8,428.2L351.5,432.9L350.3,440.4L350.9,442.8L347.5,441.5L345.6,442.0L345.0,444.0L343.1,446.5L343.2,448.8L347.2,452.4L351.1,451.7L352.5,448.7L357.5,448.8L355.9,453.6L355.1,459.2L353.4,462.2L348.8,465.6Z" fill="none" stroke="#000" stroke-width="0.75" stroke-linejoin="round"/>
  <path d="M357.1,331.6L360.2,334.6L361.9,340.3L360.8,342.1L359.4,347.5L360.7,353.1L358.6,355.4L356.6,361.6L360.1,363.3L339.8,368.9L340.4,373.6L335.4,374.5L331.6,377.2L330.8,379.5L328.4,380.0L322.5,385.5L318.8,389.9L316.6,390.0L314.4,389.3L306.9,388.5L305.7,388.0L305.7,387.5L303.0,386.0L298.7,385.6L293.2,387.1L288.9,382.9L284.3,377.5L284.7,356.2L298.6,356.2L298.0,353.9L299.0,351.4L297.8,348.3L298.6,345.1L297.9,343.0L300.2,343.1L300.6,345.2L303.7,345.1L308.0,345.7L310.2,348.7L315.6,349.6L319.6,347.5L321.1,351.0L326.3,352.0L328.7,354.8L331.5,358.5L336.6,358.6L336.0,351.4L334.2,352.6L329.5,350.0L327.7,348.8L328.6,342.1L329.7,334.1L328.2,331.2L330.1,326.9L331.9,326.1L340.9,325.0L343.6,325.7L346.4,327.4L349.0,328.5L353.3,329.6L357.1,331.6Z" fill="none" stroke="#000" stroke-width="0.75" stroke-linejoin="round"/>
  <path d="M346.6,418.7L343.0,418.1L340.8,418.9L337.5,417.7L334.8,417.7L330.5,414.6L325.4,413.6L323.4,409.4L323.4,407.0L320.5,406.3L313.0,398.9L310.9,395.1L309.5,393.9L306.9,388.5L314.4,389.3L316.6,390.0L318.8,389.9L322.5,385.5L328.4,380.0L330.8,379.5L331.6,377.2L335.4,374.5L340.4,373.6L340.9,376.1L346.5,376.0L349.6,377.4L351.0,379.1L354.2,379.5L357.7,381.7L357.7,390.2L356.4,394.8L356.1,399.8L357.2,401.8L356.4,405.7L355.4,406.3L353.6,411.1L346.6,418.7Z" fill="none" stroke="#000" stroke-width="0.75" stroke-linejoin="round"/>
  <path d="M412.2,275.6L416.1,281.1L411.4,283.8L409.8,286.6L407.3,287.1L406.3,291.8L404.2,294.5L402.9,299.0L400.2,301.2L390.6,294.5L390.1,290.6L365.9,277.0L364.7,276.2L364.7,269.1L366.6,266.4L369.9,262.0L372.3,257.1L369.4,249.4L368.6,246.1L365.4,241.4L369.5,237.4L374.1,233.0L377.5,234.2L377.5,237.9L379.8,240.1L384.5,240.1L392.9,245.8L395.1,245.9L396.6,245.7L398.1,246.5L402.6,247.0L404.5,244.2L410.7,241.4L413.4,243.7L417.9,243.7L412.1,251.2L412.2,275.6Z" fill="#000" stroke="#000" stroke-width="0.75" stroke-linejoin="round"/>
</svg>