<svg xmlns="http://www.w3.org/2000/svg" viewBox="0 0 200 200" fill="none">
  <!-- Coffee cup with cascading nitro bubbles -->
  <!-- Cup body -->
  <path d="M50 70 L55 170 Q60 185 100 185 Q140 185 145 170 L150 70" stroke="#000" stroke-width="2" stroke-linejoin="round"/>
  <!-- Cup rim -->
  <ellipse cx="100" cy="70" rx="50" ry="12" stroke="#000" stroke-width="2"/>
  <!-- Liquid surface -->
  <ellipse cx="100" cy="85" rx="46" ry="10" stroke="#000" stroke-width="0.8" opacity="0.3"/>
  <!-- Cascading nitrogen bubbles -->
  <circle cx="80" cy="100" r="3" fill="#000" opacity="0.12"/>
  <circle cx="95" cy="108" r="2.5" fill="#000" opacity="0.1"/>
  <circle cx="110" cy="95" r="3.5" fill="#000" opacity="0.12"/>
  <circle cx="85" cy="120" r="2" fill="#000" opacity="0.08"/>
  <circle cx="105" cy="118" r="4" fill="#000" opacity="0.12"/>
  <circle cx="120" cy="110" r="2.5" fill="#000" opacity="0.1"/>
  <circle cx="90" cy="135" r="3" fill="#000" opacity="0.1"/>
  <circle cx="115" cy="130" r="2" fill="#000" opacity="0.08"/>
  <circle cx="100" cy="140" r="3.5" fill="#000" opacity="0.12"/>
  <circle cx="75" cy="145" r="2" fill="#000" opacity="0.08"/>
  <circle cx="110" cy="150" r="2.5" fill="#000" opacity="0.1"/>
  <circle cx="95" cy="158" r="3" fill="#000" opacity="0.1"/>
  <circle cx="120" cy="155" r="2" fill="#000" opacity="0.08"/>
  <!-- Steam wisps -->
  <path d="M80 55 Q75 40 82 28 Q85 35 80 45" stroke="#000" stroke-width="1" opacity="0.2" stroke-linecap="round"/>
  <path d="M100 50 Q95 32 102 18 Q106 28 100 40" stroke="#000" stroke-width="1" opacity="0.2" stroke-linecap="round"/>
  <path d="M120 55 Q115 38 122 25 Q126 35 120 45" stroke="#000" stroke-width="1" opacity="0.2" stroke-linecap="round"/>
</svg>
